<?xml version="1.0" encoding="UTF-8" standalone="no"?>
<!-- Created with Inkscape (http://www.inkscape.org/) -->

<svg
   xmlns:dc="http://purl.org/dc/elements/1.1/"
   xmlns:cc="http://creativecommons.org/ns#"
   xmlns:rdf="http://www.w3.org/1999/02/22-rdf-syntax-ns#"
   xmlns:svg="http://www.w3.org/2000/svg"
   xmlns="http://www.w3.org/2000/svg"
   xmlns:sodipodi="http://sodipodi.sourceforge.net/DTD/sodipodi-0.dtd"
   xmlns:inkscape="http://www.inkscape.org/namespaces/inkscape"
   width="114.16308mm"
   height="199.8519mm"
   viewBox="0 0 404.51484 708.13664"
   id="svg2"
   version="1.1"
   inkscape:version="0.91 r13725"
   sodipodi:docname="sowa.svg">
  <defs
     id="defs4" />
  <sodipodi:namedview
     id="base"
     pagecolor="#ffffff"
     bordercolor="#666666"
     borderopacity="1.0"
     inkscape:pageopacity="0.0"
     inkscape:pageshadow="2"
     inkscape:zoom="0.35"
     inkscape:cx="226.60964"
     inkscape:cy="292.42423"
     inkscape:document-units="px"
     inkscape:current-layer="g3348"
     showgrid="false"
     fit-margin-top="0"
     fit-margin-left="0"
     fit-margin-right="0"
     fit-margin-bottom="0"
     inkscape:window-width="1920"
     inkscape:window-height="1051"
     inkscape:window-x="0"
     inkscape:window-y="0"
     inkscape:window-maximized="1" />
  <metadata
     id="metadata7">
    <rdf:RDF>
      <cc:Work
         rdf:about="">
        <dc:format>image/svg+xml</dc:format>
        <dc:type
           rdf:resource="http://purl.org/dc/dcmitype/StillImage" />
        <dc:title></dc:title>
      </cc:Work>
    </rdf:RDF>
  </metadata>
  <g
     inkscape:label="Layer 1"
     inkscape:groupmode="layer"
     id="layer1"
     transform="translate(-148.39036,-116.64976)">
    <g
       id="g3348"
       transform="matrix(8.6020647,0,0,8.6020647,-79.221636,39.231181)">
      <path
         style="clip-rule:evenodd;fill-rule:evenodd"
         inkscape:connector-curvature="0"
         d="m 55.5,81.5 c 2.3,0.9 4,3.6 2.8,6.9 -2.2,-1.5 -3.3,-4.8 -6.4,-4.8 -2.7,0 -3.9,3 -5.2,5.2 -0.8,-1.2 -0.9,-4 -0.3,-5.5 -2.1,-0.4 -3.3,1.6 -4,3.3 -1,-0.8 -0.8,-3.6 -0.3,-4.8 -2.9,-0.1 -3.5,2.1 -4,4.3 -2.7,-3.6 1.5,-8.5 6,-6.5 1.1,-0.3 1.8,-1.2 2.2,-2.2 C 34.4,71.9 25.8,66.1 26.5,49.2 c 0.1,-1.9 0.4,-3.8 0.7,-5.7 0.3,-1.6 1,-3.4 1,-5.2 0.1,-2.8 -0.9,-6 -0.7,-9.5 0.2,-3.1 1,-6.1 2.1,-8.3 0.9,-1.8 4.1,-7.3 -0.7,-7.6 0.4,-0.3 1,-0.3 1.7,-0.3 -0.8,-1.5 -2,-2.6 -3.4,-3.4 3.6,0.1 6.6,2.2 7.9,5.2 4.8,-3.7 15.6,-3.4 20.1,0.3 1.6,-3 4.1,-5.1 8.3,-5.7 -1.2,1.1 -2.5,2.1 -3.4,3.4 0.4,0.3 1.1,0.3 1.7,0.3 -0.7,0.6 -1.8,0.7 -2.4,1.4 -0.7,4.1 2.1,6.1 3.3,9.1 0.9,2.4 1.6,5.6 1.2,9.3 -0.2,1.6 -1.2,3.8 -1,5.2 0.2,1.5 2.8,3.4 4,5.2 4.5,6.6 7.1,14.8 6.5,26.5 -0.3,5.9 -1.6,11.9 -3.1,17.2 -0.4,1.5 -0.8,4.3 -2.1,4.6 -2.2,0.7 -4.6,-1.8 -5.5,-2.9 -2.1,-2.7 -4,-5.7 -7.2,-6.8 z M 35.2,18.6 c -2.6,1.6 -4.5,5.8 -4.5,10.3 0.2,15.7 28.8,15.2 30.3,0.9 0.6,-5.7 -2.5,-10 -5.2,-11.4 -4.9,-2.5 -8.3,2.2 -10.2,5.3 C 43.7,20.2 39.4,16 35.2,18.6 Z m 15.7,26 c -1.4,9.9 4,16.2 8.1,22.2 3.2,4.7 6.1,9 7.6,15 0.1,0.6 0,2.1 1.2,2.1 1.1,-0.4 0.3,-1.6 0.2,-2.2 -0.6,-2.8 -1.6,-4.9 -2.8,-7.1 -4.8,-9.2 -14.5,-17.1 -12.9,-30.5 -0.3,0 -0.7,0 -1,0 -0.3,0.1 -0.5,0.2 -0.4,0.5 z m -1.6,36.2 c 1.3,0.5 2.5,-0.3 2.9,-1.2 -1.2,-0.5 -2.3,-1 -3.4,-1.6 -0.2,1.1 -0.1,2.1 0.5,2.8 z"
         id="path3350" />
      <path
         style="clip-rule:evenodd;fill-rule:evenodd"
         inkscape:connector-curvature="0"
         d="m 42.4,30.1 c -2.4,2.7 -8,2.6 -8.6,-1.6 1.9,-3.7 7.9,-2.3 8.6,1.6 z"
         id="path3352" />
      <path
         style="clip-rule:evenodd;fill-rule:evenodd"
         inkscape:connector-curvature="0"
         d="m 57.6,29.1 c -1.2,3.2 -7.2,4.7 -8.6,0.7 0.8,-4 7,-4.3 8.6,-0.7 z"
         id="path3354" />
      <path
         style="clip-rule:evenodd;fill-rule:evenodd"
         inkscape:connector-curvature="0"
         d="m 46,39.6 c -1,-1.3 -2.6,-4.1 -1.9,-6.5 0.6,-2.1 3.2,-1.7 3.6,0.2 0.6,2.5 -0.9,4.6 -1.7,6.3 z"
         id="path3356" />
    </g>
  </g>
</svg>
